<?xml version="1.0" encoding="UTF-8"?>
<svg width="1440px" height="69px" viewBox="0 0 1440 69" version="1.1" xmlns="http://www.w3.org/2000/svg" xmlns:xlink="http://www.w3.org/1999/xlink">
    <!-- Generator: Sketch 59.1 (86144) - https://sketch.com -->
    <title>Group 9</title>
    <desc>Created with Sketch.</desc>
    <g id="Page-1" stroke="none" stroke-width="1" fill="none" fill-rule="evenodd">
        <g id="Desktop-HD" transform="translate(0.000000, -748.000000)" fill="#F1F1F1">
            <g id="Divider" transform="translate(720.000000, 817.000000) scale(1, -1) translate(-720.000000, -817.000000) translate(-765.000000, 750.000000)">
                <g id="Group-9" transform="translate(0.000000, 67.000000)">
                    <g id="Group-8" transform="translate(0.000000, 17.000000)" stroke="#F3BED7" stroke-width="3">
                        <g id="Ovals" transform="translate(1480.000000, 0.000000)">
                            <circle id="Oval" cx="745" cy="25" r="25"></circle>
                            <circle id="Oval" cx="705" cy="25" r="25"></circle>
                            <circle id="Oval" cx="665" cy="25" r="25"></circle>
                            <circle id="Oval" cx="625" cy="25" r="25"></circle>
                            <circle id="Oval" cx="585" cy="25" r="25"></circle>
                            <circle id="Oval" cx="545" cy="25" r="25"></circle>
                            <circle id="Oval" cx="505" cy="25" r="25"></circle>
                            <circle id="Oval" cx="465" cy="25" r="25"></circle>
                            <circle id="Oval" cx="425" cy="25" r="25"></circle>
                            <circle id="Oval" cx="385" cy="25" r="25"></circle>
                            <circle id="Oval" cx="345" cy="25" r="25"></circle>
                            <circle id="Oval" cx="305" cy="25" r="25"></circle>
                            <circle id="Oval" cx="265" cy="25" r="25"></circle>
                            <circle id="Oval" cx="225" cy="25" r="25"></circle>
                            <circle id="Oval" cx="185" cy="25" r="25"></circle>
                            <circle id="Oval" cx="145" cy="25" r="25"></circle>
                            <circle id="Oval" cx="105" cy="25" r="25"></circle>
                            <circle id="Oval" cx="65" cy="25" r="25"></circle>
                            <circle id="Oval" cx="25" cy="25" r="25"></circle>
                        </g>
                        <g id="Ovals">
                            <circle id="Oval" cx="745" cy="25" r="25"></circle>
                            <circle id="Oval" cx="785" cy="25" r="25"></circle>
                            <circle id="Oval" cx="825" cy="25" r="25"></circle>
                            <circle id="Oval" cx="865" cy="25" r="25"></circle>
                            <circle id="Oval" cx="905" cy="25" r="25"></circle>
                            <circle id="Oval" cx="945" cy="25" r="25"></circle>
                            <circle id="Oval" cx="985" cy="25" r="25"></circle>
                            <circle id="Oval" cx="1025" cy="25" r="25"></circle>
                            <circle id="Oval" cx="1065" cy="25" r="25"></circle>
                            <circle id="Oval" cx="1105" cy="25" r="25"></circle>
                            <circle id="Oval" cx="1145" cy="25" r="25"></circle>
                            <circle id="Oval" cx="1185" cy="25" r="25"></circle>
                            <circle id="Oval" cx="1225" cy="25" r="25"></circle>
                            <circle id="Oval" cx="1265" cy="25" r="25"></circle>
                            <circle id="Oval" cx="1305" cy="25" r="25"></circle>
                            <circle id="Oval" cx="1345" cy="25" r="25"></circle>
                            <circle id="Oval" cx="1385" cy="25" r="25"></circle>
                            <circle id="Oval" cx="1425" cy="25" r="25"></circle>
                            <circle id="Oval" cx="1465" cy="25" r="25"></circle>
                        </g>
                    </g>
                    <rect id="Rectangle" x="0" y="0" width="2970" height="55"></rect>
                </g>
            </g>
        </g>
    </g>
</svg>