<?xml version="1.0" encoding="UTF-8"?>
<svg width="2891px" height="144px" viewBox="0 0 2891 144" version="1.1" xmlns="http://www.w3.org/2000/svg" xmlns:xlink="http://www.w3.org/1999/xlink">
    <!-- Generator: Sketch 59.1 (86144) - https://sketch.com -->
    <title>Group 4</title>
    <desc>Created with Sketch.</desc>
    <g id="Page-1" stroke="none" stroke-width="1" fill="none" fill-rule="evenodd">
        <g id="Group-4">
            <rect id="Rectangle" fill="#F3BED7" x="0" y="0" width="2891" height="120"></rect>
            <g id="Group-5" transform="translate(1401.000000, 90.000000)">
                <g id="Ovals" transform="translate(0.000000, 4.000000)" fill="#FFFFFF">
                    <circle id="Oval" cx="745" cy="25" r="25"></circle>
                    <circle id="Oval" cx="705" cy="25" r="25"></circle>
                    <circle id="Oval" cx="665" cy="25" r="25"></circle>
                    <circle id="Oval" cx="625" cy="25" r="25"></circle>
                    <circle id="Oval" cx="585" cy="25" r="25"></circle>
                    <circle id="Oval" cx="545" cy="25" r="25"></circle>
                    <circle id="Oval" cx="505" cy="25" r="25"></circle>
                    <circle id="Oval" cx="465" cy="25" r="25"></circle>
                    <circle id="Oval" cx="425" cy="25" r="25"></circle>
                    <circle id="Oval" cx="385" cy="25" r="25"></circle>
                    <circle id="Oval" cx="345" cy="25" r="25"></circle>
                    <circle id="Oval" cx="305" cy="25" r="25"></circle>
                    <circle id="Oval" cx="265" cy="25" r="25"></circle>
                    <circle id="Oval" cx="225" cy="25" r="25"></circle>
                    <circle id="Oval" cx="185" cy="25" r="25"></circle>
                    <circle id="Oval" cx="145" cy="25" r="25"></circle>
                    <circle id="Oval" cx="105" cy="25" r="25"></circle>
                    <circle id="Oval" cx="65" cy="25" r="25"></circle>
                    <circle id="Oval" cx="25" cy="25" r="25"></circle>
                    <circle id="Oval" cx="785" cy="25" r="25"></circle>
                    <circle id="Oval" cx="825" cy="25" r="25"></circle>
                    <circle id="Oval" cx="865" cy="25" r="25"></circle>
                    <circle id="Oval" cx="905" cy="25" r="25"></circle>
                    <circle id="Oval" cx="945" cy="25" r="25"></circle>
                    <circle id="Oval" cx="985" cy="25" r="25"></circle>
                    <circle id="Oval" cx="1025" cy="25" r="25"></circle>
                    <circle id="Oval" cx="1065" cy="25" r="25"></circle>
                    <circle id="Oval" cx="1105" cy="25" r="25"></circle>
                    <circle id="Oval" cx="1145" cy="25" r="25"></circle>
                    <circle id="Oval" cx="1185" cy="25" r="25"></circle>
                    <circle id="Oval" cx="1225" cy="25" r="25"></circle>
                    <circle id="Oval" cx="1265" cy="25" r="25"></circle>
                    <circle id="Oval" cx="1305" cy="25" r="25"></circle>
                    <circle id="Oval" cx="1345" cy="25" r="25"></circle>
                    <circle id="Oval" cx="1385" cy="25" r="25"></circle>
                    <circle id="Oval" cx="1425" cy="25" r="25"></circle>
                    <circle id="Oval" cx="1465" cy="25" r="25"></circle>
                </g>
                <g id="Ovals" fill="#F3BED7">
                    <circle id="Oval" cx="745" cy="25" r="25"></circle>
                    <circle id="Oval" cx="705" cy="25" r="25"></circle>
                    <circle id="Oval" cx="665" cy="25" r="25"></circle>
                    <circle id="Oval" cx="625" cy="25" r="25"></circle>
                    <circle id="Oval" cx="585" cy="25" r="25"></circle>
                    <circle id="Oval" cx="545" cy="25" r="25"></circle>
                    <circle id="Oval" cx="505" cy="25" r="25"></circle>
                    <circle id="Oval" cx="465" cy="25" r="25"></circle>
                    <circle id="Oval" cx="425" cy="25" r="25"></circle>
                    <circle id="Oval" cx="385" cy="25" r="25"></circle>
                    <circle id="Oval" cx="345" cy="25" r="25"></circle>
                    <circle id="Oval" cx="305" cy="25" r="25"></circle>
                    <circle id="Oval" cx="265" cy="25" r="25"></circle>
                    <circle id="Oval" cx="225" cy="25" r="25"></circle>
                    <circle id="Oval" cx="185" cy="25" r="25"></circle>
                    <circle id="Oval" cx="145" cy="25" r="25"></circle>
                    <circle id="Oval" cx="105" cy="25" r="25"></circle>
                    <circle id="Oval" cx="65" cy="25" r="25"></circle>
                    <circle id="Oval" cx="25" cy="25" r="25"></circle>
                    <circle id="Oval" cx="785" cy="25" r="25"></circle>
                    <circle id="Oval" cx="825" cy="25" r="25"></circle>
                    <circle id="Oval" cx="865" cy="25" r="25"></circle>
                    <circle id="Oval" cx="905" cy="25" r="25"></circle>
                    <circle id="Oval" cx="945" cy="25" r="25"></circle>
                    <circle id="Oval" cx="985" cy="25" r="25"></circle>
                    <circle id="Oval" cx="1025" cy="25" r="25"></circle>
                    <circle id="Oval" cx="1065" cy="25" r="25"></circle>
                    <circle id="Oval" cx="1105" cy="25" r="25"></circle>
                    <circle id="Oval" cx="1145" cy="25" r="25"></circle>
                    <circle id="Oval" cx="1185" cy="25" r="25"></circle>
                    <circle id="Oval" cx="1225" cy="25" r="25"></circle>
                    <circle id="Oval" cx="1265" cy="25" r="25"></circle>
                    <circle id="Oval" cx="1305" cy="25" r="25"></circle>
                    <circle id="Oval" cx="1345" cy="25" r="25"></circle>
                    <circle id="Oval" cx="1385" cy="25" r="25"></circle>
                    <circle id="Oval" cx="1425" cy="25" r="25"></circle>
                    <circle id="Oval" cx="1465" cy="25" r="25"></circle>
                </g>
            </g>
            <g id="Group-5" transform="translate(0.000000, 90.000000)">
                <g id="Ovals" transform="translate(0.000000, 4.000000)" fill="#FFFFFF">
                    <circle id="Oval" cx="745" cy="25" r="25"></circle>
                    <circle id="Oval" cx="705" cy="25" r="25"></circle>
                    <circle id="Oval" cx="665" cy="25" r="25"></circle>
                    <circle id="Oval" cx="625" cy="25" r="25"></circle>
                    <circle id="Oval" cx="585" cy="25" r="25"></circle>
                    <circle id="Oval" cx="545" cy="25" r="25"></circle>
                    <circle id="Oval" cx="505" cy="25" r="25"></circle>
                    <circle id="Oval" cx="465" cy="25" r="25"></circle>
                    <circle id="Oval" cx="425" cy="25" r="25"></circle>
                    <circle id="Oval" cx="385" cy="25" r="25"></circle>
                    <circle id="Oval" cx="345" cy="25" r="25"></circle>
                    <circle id="Oval" cx="305" cy="25" r="25"></circle>
                    <circle id="Oval" cx="265" cy="25" r="25"></circle>
                    <circle id="Oval" cx="225" cy="25" r="25"></circle>
                    <circle id="Oval" cx="185" cy="25" r="25"></circle>
                    <circle id="Oval" cx="145" cy="25" r="25"></circle>
                    <circle id="Oval" cx="105" cy="25" r="25"></circle>
                    <circle id="Oval" cx="65" cy="25" r="25"></circle>
                    <circle id="Oval" cx="25" cy="25" r="25"></circle>
                    <circle id="Oval" cx="785" cy="25" r="25"></circle>
                    <circle id="Oval" cx="825" cy="25" r="25"></circle>
                    <circle id="Oval" cx="865" cy="25" r="25"></circle>
                    <circle id="Oval" cx="905" cy="25" r="25"></circle>
                    <circle id="Oval" cx="945" cy="25" r="25"></circle>
                    <circle id="Oval" cx="985" cy="25" r="25"></circle>
                    <circle id="Oval" cx="1025" cy="25" r="25"></circle>
                    <circle id="Oval" cx="1065" cy="25" r="25"></circle>
                    <circle id="Oval" cx="1105" cy="25" r="25"></circle>
                    <circle id="Oval" cx="1145" cy="25" r="25"></circle>
                    <circle id="Oval" cx="1185" cy="25" r="25"></circle>
                    <circle id="Oval" cx="1225" cy="25" r="25"></circle>
                    <circle id="Oval" cx="1265" cy="25" r="25"></circle>
                    <circle id="Oval" cx="1305" cy="25" r="25"></circle>
                    <circle id="Oval" cx="1345" cy="25" r="25"></circle>
                    <circle id="Oval" cx="1385" cy="25" r="25"></circle>
                    <circle id="Oval" cx="1425" cy="25" r="25"></circle>
                    <circle id="Oval" cx="1463" cy="25" r="25"></circle>
                </g>
                <g id="Ovals" fill="#F3BED7">
                    <circle id="Oval" cx="745" cy="25" r="25"></circle>
                    <circle id="Oval" cx="705" cy="25" r="25"></circle>
                    <circle id="Oval" cx="665" cy="25" r="25"></circle>
                    <circle id="Oval" cx="625" cy="25" r="25"></circle>
                    <circle id="Oval" cx="585" cy="25" r="25"></circle>
                    <circle id="Oval" cx="545" cy="25" r="25"></circle>
                    <circle id="Oval" cx="505" cy="25" r="25"></circle>
                    <circle id="Oval" cx="465" cy="25" r="25"></circle>
                    <circle id="Oval" cx="425" cy="25" r="25"></circle>
                    <circle id="Oval" cx="385" cy="25" r="25"></circle>
                    <circle id="Oval" cx="345" cy="25" r="25"></circle>
                    <circle id="Oval" cx="305" cy="25" r="25"></circle>
                    <circle id="Oval" cx="265" cy="25" r="25"></circle>
                    <circle id="Oval" cx="225" cy="25" r="25"></circle>
                    <circle id="Oval" cx="185" cy="25" r="25"></circle>
                    <circle id="Oval" cx="145" cy="25" r="25"></circle>
                    <circle id="Oval" cx="105" cy="25" r="25"></circle>
                    <circle id="Oval" cx="65" cy="25" r="25"></circle>
                    <circle id="Oval" cx="25" cy="25" r="25"></circle>
                    <circle id="Oval" cx="785" cy="25" r="25"></circle>
                    <circle id="Oval" cx="825" cy="25" r="25"></circle>
                    <circle id="Oval" cx="865" cy="25" r="25"></circle>
                    <circle id="Oval" cx="905" cy="25" r="25"></circle>
                    <circle id="Oval" cx="945" cy="25" r="25"></circle>
                    <circle id="Oval" cx="985" cy="25" r="25"></circle>
                    <circle id="Oval" cx="1025" cy="25" r="25"></circle>
                    <circle id="Oval" cx="1065" cy="25" r="25"></circle>
                    <circle id="Oval" cx="1105" cy="25" r="25"></circle>
                    <circle id="Oval" cx="1145" cy="25" r="25"></circle>
                    <circle id="Oval" cx="1185" cy="25" r="25"></circle>
                    <circle id="Oval" cx="1225" cy="25" r="25"></circle>
                    <circle id="Oval" cx="1265" cy="25" r="25"></circle>
                    <circle id="Oval" cx="1305" cy="25" r="25"></circle>
                    <circle id="Oval" cx="1345" cy="25" r="25"></circle>
                    <circle id="Oval" cx="1385" cy="25" r="25"></circle>
                    <circle id="Oval" cx="1425" cy="25" r="25"></circle>
                    <circle id="Oval" cx="1465" cy="25" r="25"></circle>
                </g>
            </g>
        </g>
    </g>
</svg>