<?xml version="1.0" encoding="UTF-8"?>
<svg width="159px" height="157px" viewBox="0 0 159 157" version="1.1" xmlns="http://www.w3.org/2000/svg" xmlns:xlink="http://www.w3.org/1999/xlink">
    <!-- Generator: Sketch 59.1 (86144) - https://sketch.com -->
    <title>Group 2</title>
    <desc>Created with Sketch.</desc>
    <g id="Page-1" stroke="none" stroke-width="1" fill="none" fill-rule="evenodd">
        <g id="Desktop-HD" transform="translate(-324.000000, -454.000000)">
            <g id="Welcome" transform="translate(126.000000, 196.000000)">
                <g id="Group-2" transform="translate(190.000000, 247.000000)">
                    <path d="M77.7986149,158.504144 L72.5366187,161.422958 C65.3570983,165.405418 56.3085254,162.813689 52.3260654,155.634168 C51.9888904,155.026314 51.6947647,154.39556 51.4458533,153.746548 L49.2911083,148.12826 C46.8200341,141.685175 41.2020216,136.971103 34.427724,135.6564 L28.5206232,134.509995 C20.4609155,132.94583 15.1952382,125.144139 16.7594036,117.084432 C16.8918337,116.402057 17.0719615,115.72981 17.2984613,115.072641 L19.2591965,109.383739 C21.5077791,102.859674 20.2342791,95.6372965 15.8899408,90.2757409 L12.1017335,85.6005331 C6.93306544,79.2216327 7.91415261,69.8604788 14.2930531,64.6918107 C14.8331227,64.2542054 15.4032203,63.8550187 15.9991495,63.4971891 L21.1579151,60.3995741 C27.0740177,56.847211 30.7409149,50.4959588 30.8593003,43.5962821 L30.9625307,37.5798525 C31.1033794,29.3709754 37.8721696,22.8305462 46.0810466,22.9713949 C46.7760512,22.9833198 47.4693636,23.0439768 48.1558802,23.1529193 L54.0988325,24.0959992 C60.914245,25.1775287 67.8057575,22.6692233 72.3314726,17.4598609 L76.2778381,12.9173637 C81.662299,6.71953481 91.0515999,6.06016974 97.2494288,11.4446306 C97.774168,11.9005059 98.2662865,12.3926245 98.7221619,12.9173637 L102.668527,17.4598609 C107.194243,22.6692233 114.085755,25.1775287 120.901167,24.0959992 L126.84412,23.1529193 C134.952744,21.8661716 142.569197,27.396395 143.855945,35.5050189 C143.964887,36.1915355 144.025544,36.8848479 144.037469,37.5798525 L144.1407,43.5962821 C144.259085,50.4959588 147.925982,56.847211 153.842085,60.3995741 L159.000851,63.4971891 C166.039522,67.7236062 168.319305,76.855765 164.092888,83.8944367 C163.735058,84.4903659 163.335872,85.0604635 162.898266,85.6005331 L159.110059,90.2757409 C154.765721,95.6372965 153.492221,102.859674 155.740803,109.383739 L157.701539,115.072641 C160.376786,122.834635 156.253162,131.295691 148.491168,133.970938 C147.833998,134.197437 147.161752,134.377565 146.479377,134.509995 L140.572276,135.6564 C133.797978,136.971103 128.179966,141.685175 125.708892,148.12826 L123.554147,153.746548 C120.614191,161.412196 112.01665,165.243126 104.351002,162.30317 C103.70199,162.054259 103.071235,161.760133 102.463381,161.422958 L97.2013851,158.504144 C91.1668972,155.15683 83.8331028,155.15683 77.7986149,158.504144 Z" id="Star" fill="#FFFFFF" transform="translate(87.500000, 87.500000) scale(1, -1) translate(-87.500000, -87.500000) "></path>
                    <path d="M78.2986149,148.629456 L75.1742446,150.362536 C69.02037,153.776073 61.2644503,151.55459 57.8509132,145.400716 C57.5619061,144.879698 57.3097983,144.339051 57.0964457,143.782755 L55.8170413,140.446833 C53.345967,134.003748 47.7279546,129.289675 40.9536569,127.974972 L37.4462484,127.294282 C30.5379276,125.953569 26.0244899,119.266405 27.3652031,112.358084 C27.4787146,111.773191 27.6331099,111.19698 27.8272526,110.633692 L28.9914615,107.255842 C31.2400441,100.731777 29.966544,93.5093991 25.6222058,88.1478435 L23.3729145,85.3718855 C18.9426275,79.9042566 19.7835594,71.8804104 25.2511883,67.4501234 C25.7141052,67.0750332 26.2027603,66.7328732 26.7135567,66.4261621 L29.7766327,64.5869178 C35.6927353,61.0345548 39.3596325,54.6833026 39.4780178,47.7836259 L39.5393121,44.2113021 C39.6600395,37.1751218 45.4618596,31.5690396 52.49804,31.689767 C53.0937582,31.6999884 53.6880259,31.7519801 54.2764687,31.8453594 L57.8051645,32.4053238 C64.620577,33.4868533 71.5120894,30.9785479 76.0378045,25.7691856 L78.3810041,23.072026 C82.9962563,17.7596013 91.0442285,17.1944312 96.3566532,21.8096833 C96.8064297,22.2004337 97.2282456,22.6222496 97.6189959,23.072026 L99.9621955,25.7691856 C104.487911,30.9785479 111.379423,33.4868533 118.194835,32.4053238 L121.723531,31.8453594 C128.67378,30.7424328 135.202169,35.4826243 136.305096,42.4328733 C136.398475,43.0213162 136.450467,43.6155839 136.460688,44.2113021 L136.521982,47.7836259 C136.640368,54.6833026 140.307265,61.0345548 146.223367,64.5869178 L149.286443,66.4261621 C155.319591,70.0488053 157.27369,77.87637 153.651047,83.9095172 C153.344336,84.4203136 153.002176,84.9089687 152.627086,85.3718855 L150.377794,88.1478435 C146.033456,93.5093991 144.759956,100.731777 147.008539,107.255842 L148.172747,110.633692 C150.465816,117.28683 146.931282,124.539164 140.278144,126.832232 C139.714856,127.026375 139.138645,127.18077 138.553752,127.294282 L135.046343,127.974972 C128.272045,129.289675 122.654033,134.003748 120.182959,140.446833 L118.903554,143.782755 C116.383592,150.353311 109.014272,153.636965 102.443716,151.117003 C101.88742,150.903651 101.346773,150.651543 100.825755,150.362536 L97.7013851,148.629456 C91.6668972,145.282143 84.3331028,145.282143 78.2986149,148.629456 Z" id="Star" fill="#F3BED7" transform="translate(88.000000, 87.000000) scale(1, -1) translate(-88.000000, -87.000000) "></path>
                    <text id="Order-A-Cake" fill="#FFFFFF" font-family="Montserrat-SemiBold, Montserrat" font-size="18" font-weight="500" letter-spacing="0.016875">
                        <tspan x="61.1288125" y="71">Order</tspan>
                        <tspan x="81.2505625" y="93">A</tspan>
                        <tspan x="64.88125" y="115">Cake</tspan>
                    </text>
                </g>
            </g>
        </g>
    </g>
</svg>