<?xml version="1.0" encoding="UTF-8"?>
<svg width="1440px" height="58px" viewBox="0 0 1440 58" version="1.1" xmlns="http://www.w3.org/2000/svg" xmlns:xlink="http://www.w3.org/1999/xlink">
    <!-- Generator: Sketch 59.1 (86144) - https://sketch.com -->
    <title>Pink_divider</title>
    <desc>Created with Sketch.</desc>
    <g id="Page-1" stroke="none" stroke-width="1" fill="none" fill-rule="evenodd">
        <g id="Desktop-HD" transform="translate(0.000000, -8878.000000)" fill="#F3BED7">
            <g id="Divider" transform="translate(720.000000, 9190.000000) scale(1, -1) translate(-720.000000, -9190.000000) translate(-25.000000, 8880.000000)">
                <g id="Pink_divider" transform="translate(0.000000, 564.000000)">
                    <circle id="Oval" stroke="#FFFFFF" stroke-width="3" cx="745" cy="31" r="25"></circle>
                    <circle id="Oval" stroke="#FFFFFF" stroke-width="3" cx="705" cy="31" r="25"></circle>
                    <circle id="Oval" stroke="#FFFFFF" stroke-width="3" cx="665" cy="31" r="25"></circle>
                    <circle id="Oval" stroke="#FFFFFF" stroke-width="3" cx="625" cy="31" r="25"></circle>
                    <circle id="Oval" stroke="#FFFFFF" stroke-width="3" cx="585" cy="31" r="25"></circle>
                    <circle id="Oval" stroke="#FFFFFF" stroke-width="3" cx="545" cy="31" r="25"></circle>
                    <circle id="Oval" stroke="#FFFFFF" stroke-width="3" cx="505" cy="31" r="25"></circle>
                    <circle id="Oval" stroke="#FFFFFF" stroke-width="3" cx="465" cy="31" r="25"></circle>
                    <circle id="Oval" stroke="#FFFFFF" stroke-width="3" cx="425" cy="31" r="25"></circle>
                    <circle id="Oval" stroke="#FFFFFF" stroke-width="3" cx="385" cy="31" r="25"></circle>
                    <circle id="Oval" stroke="#FFFFFF" stroke-width="3" cx="345" cy="31" r="25"></circle>
                    <circle id="Oval" stroke="#FFFFFF" stroke-width="3" cx="305" cy="31" r="25"></circle>
                    <circle id="Oval" stroke="#FFFFFF" stroke-width="3" cx="265" cy="31" r="25"></circle>
                    <circle id="Oval" stroke="#FFFFFF" stroke-width="3" cx="225" cy="31" r="25"></circle>
                    <circle id="Oval" stroke="#FFFFFF" stroke-width="3" cx="185" cy="31" r="25"></circle>
                    <circle id="Oval" stroke="#FFFFFF" stroke-width="3" cx="145" cy="31" r="25"></circle>
                    <circle id="Oval" stroke="#FFFFFF" stroke-width="3" cx="105" cy="31" r="25"></circle>
                    <circle id="Oval" stroke="#FFFFFF" stroke-width="3" cx="65" cy="31" r="25"></circle>
                    <circle id="Oval" stroke="#FFFFFF" stroke-width="3" cx="25" cy="31" r="25"></circle>
                    <circle id="Oval" stroke="#FFFFFF" stroke-width="3" cx="785" cy="31" r="25"></circle>
                    <circle id="Oval" stroke="#FFFFFF" stroke-width="3" cx="825" cy="31" r="25"></circle>
                    <circle id="Oval" stroke="#FFFFFF" stroke-width="3" cx="865" cy="31" r="25"></circle>
                    <circle id="Oval" stroke="#FFFFFF" stroke-width="3" cx="905" cy="31" r="25"></circle>
                    <circle id="Oval" stroke="#FFFFFF" stroke-width="3" cx="945" cy="31" r="25"></circle>
                    <circle id="Oval" stroke="#FFFFFF" stroke-width="3" cx="985" cy="31" r="25"></circle>
                    <circle id="Oval" stroke="#FFFFFF" stroke-width="3" cx="1025" cy="31" r="25"></circle>
                    <circle id="Oval" stroke="#FFFFFF" stroke-width="3" cx="1065" cy="31" r="25"></circle>
                    <circle id="Oval" stroke="#FFFFFF" stroke-width="3" cx="1105" cy="31" r="25"></circle>
                    <circle id="Oval" stroke="#FFFFFF" stroke-width="3" cx="1145" cy="31" r="25"></circle>
                    <circle id="Oval" stroke="#FFFFFF" stroke-width="3" cx="1185" cy="31" r="25"></circle>
                    <circle id="Oval" stroke="#FFFFFF" stroke-width="3" cx="1225" cy="31" r="25"></circle>
                    <circle id="Oval" stroke="#FFFFFF" stroke-width="3" cx="1265" cy="31" r="25"></circle>
                    <circle id="Oval" stroke="#FFFFFF" stroke-width="3" cx="1305" cy="31" r="25"></circle>
                    <circle id="Oval" stroke="#FFFFFF" stroke-width="3" cx="1345" cy="31" r="25"></circle>
                    <circle id="Oval" stroke="#FFFFFF" stroke-width="3" cx="1385" cy="31" r="25"></circle>
                    <circle id="Oval" stroke="#FFFFFF" stroke-width="3" cx="1425" cy="31" r="25"></circle>
                    <circle id="Oval" stroke="#FFFFFF" stroke-width="3" cx="1465" cy="31" r="25"></circle>
                    <rect id="Rectangle" x="25" y="0" width="1440" height="45"></rect>
                </g>
            </g>
        </g>
    </g>
</svg>